FILE "Mickey's Wild Adventure (E) (Track 01) [SCES-00163].bin" BINARY
  TRACK 01 MODE2/2352
    INDEX 01 00:00:00
FILE "Mickey's Wild Adventure (E) (Track 02) [SCES-00163].bin" BINARY
  TRACK 02 AUDIO
    INDEX 00 00:00:00
    INDEX 01 00:02:00
FILE "Mickey's Wild Adventure (E) (Track 03) [SCES-00163].bin" BINARY
  TRACK 03 AUDIO
    INDEX 00 00:00:00
    INDEX 01 00:02:00
FILE "Mickey's Wild Adventure (E) (Track 04) [SCES-00163].bin" BINARY
  TRACK 04 AUDIO
    INDEX 00 00:00:00
    INDEX 01 00:02:00
FILE "Mickey's Wild Adventure (E) (Track 05) [SCES-00163].bin" BINARY
  TRACK 05 AUDIO
    INDEX 00 00:00:00
    INDEX 01 00:02:00
FILE "Mickey's Wild Adventure (E) (Track 06) [SCES-00163].bin" BINARY
  TRACK 06 AUDIO
    INDEX 00 00:00:00
    INDEX 01 00:02:00
FILE "Mickey's Wild Adventure (E) (Track 07) [SCES-00163].bin" BINARY
  TRACK 07 AUDIO
    INDEX 00 00:00:00
    INDEX 01 00:02:00
FILE "Mickey's Wild Adventure (E) (Track 08) [SCES-00163].bin" BINARY
  TRACK 08 AUDIO
    INDEX 00 00:00:00
    INDEX 01 00:02:00
FILE "Mickey's Wild Adventure (E) (Track 09) [SCES-00163].bin" BINARY
  TRACK 09 AUDIO
    INDEX 00 00:00:00
    INDEX 01 00:02:00
FILE "Mickey's Wild Adventure (E) (Track 10) [SCES-00163].bin" BINARY
  TRACK 10 AUDIO
    INDEX 00 00:00:00
    INDEX 01 00:02:00
FILE "Mickey's Wild Adventure (E) (Track 11) [SCES-00163].bin" BINARY
  TRACK 11 AUDIO
    INDEX 00 00:00:00
    INDEX 01 00:02:00
FILE "Mickey's Wild Adventure (E) (Track 12) [SCES-00163].bin" BINARY
  TRACK 12 AUDIO
    INDEX 00 00:00:00
    INDEX 01 00:02:00
FILE "Mickey's Wild Adventure (E) (Track 13) [SCES-00163].bin" BINARY
  TRACK 13 AUDIO
    INDEX 00 00:00:00
    INDEX 01 00:02:00
FILE "Mickey's Wild Adventure (E) (Track 14) [SCES-00163].bin" BINARY
  TRACK 14 AUDIO
    INDEX 00 00:00:00
    INDEX 01 00:02:00
FILE "Mickey's Wild Adventure (E) (Track 15) [SCES-00163].bin" BINARY
  TRACK 15 AUDIO
    INDEX 00 00:00:00
    INDEX 01 00:02:00
FILE "Mickey's Wild Adventure (E) (Track 16) [SCES-00163].bin" BINARY
  TRACK 16 AUDIO
    INDEX 00 00:00:00
    INDEX 01 00:02:00
FILE "Mickey's Wild Adventure (E) (Track 17) [SCES-00163].bin" BINARY
  TRACK 17 AUDIO
    INDEX 00 00:00:00
    INDEX 01 00:02:00
FILE "Mickey's Wild Adventure (E) (Track 18) [SCES-00163].bin" BINARY
  TRACK 18 AUDIO
    INDEX 00 00:00:00
    INDEX 01 00:02:00
FILE "Mickey's Wild Adventure (E) (Track 19) [SCES-00163].bin" BINARY
  TRACK 19 AUDIO
    INDEX 00 00:00:00
    INDEX 01 00:02:00
FILE "Mickey's Wild Adventure (E) (Track 20) [SCES-00163].bin" BINARY
  TRACK 20 AUDIO
    INDEX 00 00:00:00
    INDEX 01 00:02:00
FILE "Mickey's Wild Adventure (E) (Track 21) [SCES-00163].bin" BINARY
  TRACK 21 AUDIO
    INDEX 00 00:00:00
    INDEX 01 00:02:00
FILE "Mickey's Wild Adventure (E) (Track 22) [SCES-00163].bin" BINARY
  TRACK 22 AUDIO
    INDEX 00 00:00:00
    INDEX 01 00:02:00
FILE "Mickey's Wild Adventure (E) (Track 23) [SCES-00163].bin" BINARY
  TRACK 23 AUDIO
    INDEX 00 00:00:00
    INDEX 01 00:02:00
FILE "Mickey's Wild Adventure (E) (Track 24) [SCES-00163].bin" BINARY
  TRACK 24 AUDIO
    INDEX 00 00:00:00
    INDEX 01 00:02:00
FILE "Mickey's Wild Adventure (E) (Track 25) [SCES-00163].bin" BINARY
  TRACK 25 AUDIO
    INDEX 00 00:00:00
    INDEX 01 00:02:00
FILE "Mickey's Wild Adventure (E) (Track 26) [SCES-00163].bin" BINARY
  TRACK 26 AUDIO
    INDEX 00 00:00:00
    INDEX 01 00:02:00
FILE "Mickey's Wild Adventure (E) (Track 27) [SCES-00163].bin" BINARY
  TRACK 27 AUDIO
    INDEX 00 00:00:00
    INDEX 01 00:02:00
FILE "Mickey's Wild Adventure (E) (Track 28) [SCES-00163].bin" BINARY
  TRACK 28 AUDIO
    INDEX 00 00:00:00
    INDEX 01 00:02:00
